<svg xmlns="http://www.w3.org/2000/svg" viewBox="0 0 48 48" fill="none">
  <defs>
    <radialGradient id="bgGlow" cx="30%" cy="25%" r="70%">
      <stop offset="0%" stop-color="#2a1b10"/>
      <stop offset="60%" stop-color="#15110d"/>
      <stop offset="100%" stop-color="#0a0807"/>
    </radialGradient>
    <linearGradient id="gold" x1="0%" y1="0%" x2="100%" y2="100%">
      <stop offset="0%" stop-color="#FFF3B5"/>
      <stop offset="35%" stop-color="#E5C158"/>
      <stop offset="70%" stop-color="#C99827"/>
      <stop offset="100%" stop-color="#8C6212"/>
    </linearGradient>
    <linearGradient id="amber" x1="0%" y1="0%" x2="0%" y2="100%">
      <stop offset="0%" stop-color="#F59E0B" stop-opacity="0.9"/>
      <stop offset="100%" stop-color="#B45309" stop-opacity="0.3"/>
    </linearGradient>
  </defs>

  <!-- Background Base -->
  <rect x="2" y="2" width="44" height="44" rx="12" fill="url(#bgGlow)" stroke="url(#gold)" stroke-width="1.5"/>

  <!-- Cap -->
  <rect x="19" y="9" width="10" height="6" rx="1.5" fill="url(#gold)" stroke="#FFEAA7" stroke-width="0.5"/>
  <rect x="22" y="15" width="4" height="2" rx="0.5" fill="url(#gold)"/>

  <!-- Bottle Body -->
  <path d="M 14 20 C 14 17.5 17 16 20 16 H 28 C 31 16 34 17.5 34 20 L 35.5 34 C 35.8 37 33.5 39.5 30.5 39.5 H 17.5 C 14.5 39.5 12.2 37 12.5 34 Z" fill="#120A0C" stroke="url(#gold)" stroke-width="1.5" stroke-linejoin="round"/>

  <!-- Liquid wave -->
  <path d="M 14.5 28 C 17.5 27 21 29 25 27.5 C 28.5 26.5 31.5 28 33.5 27.5 L 34.2 34 C 34.4 36.5 32.5 38.5 29.8 38.5 H 18.2 C 15.5 38.5 13.6 36.5 13.8 34 Z" fill="url(#amber)"/>

  <!-- Monogram R -->
  <path d="M 20 22 H 25.5 C 27.5 22 29 23.2 29 25.2 C 29 27 27.6 28.2 25.8 28.3 L 29.2 34 H 26.8 L 23.9 28.8 H 22 V 34 H 20 V 22 Z M 22 27.2 H 25.3 C 26.4 27.2 27.1 26.5 27.1 25.2 C 27.1 24 26.2 23.6 25.2 23.6 H 22 V 27.2 Z" fill="url(#gold)"/>
</svg>